<?xml version="1.0" encoding="UTF-8"?>
<svg width="70px" height="70px" viewBox="0 0 70 70" version="1.1" xmlns="http://www.w3.org/2000/svg" xmlns:xlink="http://www.w3.org/1999/xlink">
    <!-- Generator: sketchtool 56.3 (101010) - https://sketch.com -->
    <title>57C074B6-D708-45FF-AF25-95719499F863</title>
    <desc>Created with sketchtool.</desc>
    <defs>
        <path d="M20.8213,14.0576 C20.2983,13.8716 19.7283,14.1446 19.5453,14.6666 C18.4173,17.8566 15.3843,19.9996 12.0003,19.9996 C7.5893,19.9996 4.0003,16.4116 4.0003,11.9996 C4.0003,8.6156 6.1433,5.5826 9.3333,4.4546 C9.8543,4.2716 10.1273,3.7006 9.9433,3.1796 C9.7593,2.6596 9.1883,2.3856 8.6673,2.5706 C4.6793,3.9796 2.0003,7.7686 2.0003,11.9996 C2.0003,17.5136 6.4863,21.9996 12.0003,21.9996 C16.2313,21.9996 20.0203,19.3216 21.4303,15.3326 C21.6143,14.8126 21.3423,14.2416 20.8213,14.0576 M14,10 L14,4.071 C17.061,4.511 19.489,6.938 19.929,10 L14,10 Z M13,2 C12.448,2 12,2.447 12,3 L12,11 C12,11.553 12.448,12 13,12 L21,12 C21.552,12 22,11.553 22,11 C22,6.037 17.962,2 13,2 L13,2 Z" id="path-1"></path>
    </defs>
    <g id="Account" stroke="none" stroke-width="1" fill="none" fill-rule="evenodd">
        <g id="Accumulation---Settings-/-Connect-exchange---Desktop-Copy-2" transform="translate(0.000000, -64.000000)">
            <g id="Group-5" transform="translate(0.000000, 64.000000)">
                <rect id="Rectangle" fill="#222B45" x="0" y="0" width="70" height="70"></rect>
                <g id="pie-chart" transform="translate(23.000000, 23.000000)">
                    <mask id="mask-2" fill="white">
                        <use xlink:href="#path-1"></use>
                    </mask>
                    <use id="🎨-Icon-Сolor" fill="#00D68F" fill-rule="evenodd" xlink:href="#path-1"></use>
                </g>
                <rect id="Rectangle" fill="#00D68F" x="0" y="2" width="4" height="65"></rect>
            </g>
        </g>
    </g>
</svg>