<?xml version="1.0" encoding="UTF-8"?>
<svg width="480px" height="392px" viewBox="0 0 480 392" version="1.1" xmlns="http://www.w3.org/2000/svg" xmlns:xlink="http://www.w3.org/1999/xlink">
    <!-- Generator: sketchtool 57.1 (101010) - https://sketch.com -->
    <title>75152F30-C3A8-42FF-BF76-4602B5157BE0</title>
    <desc>Created with sketchtool.</desc>
    <defs>
        <polygon id="path-1" points="74.6623048 0 43.5734184 60.8445894 49.8492386 60.8445894 49.8492386 110.461084 18.2211297 110.461084 0 146.121168 225.772942 262.268657 300.435835 116.147489"></polygon>
        <filter x="-5.2%" y="-6.0%" width="110.4%" height="112.0%" filterUnits="objectBoundingBox" id="filter-2">
            <feMorphology radius="0.5" operator="dilate" in="SourceAlpha" result="shadowSpreadOuter1"></feMorphology>
            <feOffset dx="0" dy="0" in="shadowSpreadOuter1" result="shadowOffsetOuter1"></feOffset>
            <feMorphology radius="1" operator="erode" in="SourceAlpha" result="shadowInner"></feMorphology>
            <feOffset dx="0" dy="0" in="shadowInner" result="shadowInner"></feOffset>
            <feComposite in="shadowOffsetOuter1" in2="shadowInner" operator="out" result="shadowOffsetOuter1"></feComposite>
            <feGaussianBlur stdDeviation="5" in="shadowOffsetOuter1" result="shadowBlurOuter1"></feGaussianBlur>
            <feColorMatrix values="0 0 0 0 0   0 0 0 0 0.839215686   0 0 0 0 0.560784314  0 0 0 1 0" type="matrix" in="shadowBlurOuter1"></feColorMatrix>
        </filter>
        <polygon id="path-3" points="123.717302 159.641791 122.905569 158.786932 160.904669 122.435939 194.401004 146.618769 221.488766 116.476721 233.366536 126.609871 265.676447 107.152381 301.565629 131.362958 357.893423 99.2059701 358.474576 100.232037 301.513866 132.750924 265.641154 108.550973 233.247717 128.058054 221.596997 118.118546 194.569232 148.194472 161.00937 123.966774"></polygon>
        <filter x="-6.4%" y="-24.8%" width="112.7%" height="149.6%" filterUnits="objectBoundingBox" id="filter-4">
            <feOffset dx="0" dy="0" in="SourceAlpha" result="shadowOffsetOuter1"></feOffset>
            <feGaussianBlur stdDeviation="5" in="shadowOffsetOuter1" result="shadowBlurOuter1"></feGaussianBlur>
            <feColorMatrix values="0 0 0 0 0   0 0 0 0 0.839215686   0 0 0 0 0.560784314  0 0 0 1 0" type="matrix" in="shadowBlurOuter1"></feColorMatrix>
        </filter>
        <ellipse id="path-5" cx="413.099274" cy="41.0507463" rx="13.6561743" ry="13.6835821"></ellipse>
        <filter x="-54.9%" y="-54.8%" width="209.8%" height="209.6%" filterUnits="objectBoundingBox" id="filter-6">
            <feOffset dx="0" dy="0" in="SourceAlpha" result="shadowOffsetOuter1"></feOffset>
            <feGaussianBlur stdDeviation="5" in="shadowOffsetOuter1" result="shadowBlurOuter1"></feGaussianBlur>
            <feColorMatrix values="0 0 0 0 0   0 0 0 0 0.839215686   0 0 0 0 0.560784314  0 0 0 1 0" type="matrix" in="shadowBlurOuter1"></feColorMatrix>
        </filter>
        <ellipse id="path-7" cx="396.598063" cy="294.767164" rx="7.39709443" ry="7.4119403"></ellipse>
        <filter x="-101.4%" y="-101.2%" width="302.8%" height="302.4%" filterUnits="objectBoundingBox" id="filter-8">
            <feOffset dx="0" dy="0" in="SourceAlpha" result="shadowOffsetOuter1"></feOffset>
            <feGaussianBlur stdDeviation="5" in="shadowOffsetOuter1" result="shadowBlurOuter1"></feGaussianBlur>
            <feColorMatrix values="0 0 0 0 0   0 0 0 0 0.839215686   0 0 0 0 0.560784314  0 0 0 1 0" type="matrix" in="shadowBlurOuter1"></feColorMatrix>
        </filter>
        <ellipse id="path-9" cx="357.905569" cy="102.056716" rx="7.39709443" ry="7.4119403"></ellipse>
        <filter x="-101.4%" y="-101.2%" width="302.8%" height="302.4%" filterUnits="objectBoundingBox" id="filter-10">
            <feOffset dx="0" dy="0" in="SourceAlpha" result="shadowOffsetOuter1"></feOffset>
            <feGaussianBlur stdDeviation="5" in="shadowOffsetOuter1" result="shadowBlurOuter1"></feGaussianBlur>
            <feColorMatrix values="0 0 0 0 0   0 0 0 0 0.839215686   0 0 0 0 0.560784314  0 0 0 1 0" type="matrix" in="shadowBlurOuter1"></feColorMatrix>
        </filter>
        <path d="M16,32 C7.163,32 0,24.837 0,16 C0,7.163 7.163,0 16,0 C24.837,0 32,7.163 32,16 C32,24.837 24.837,32 16,32 Z M23.189,14.02 C23.503,11.924 21.906,10.797 19.724,10.045 L20.432,7.205 L18.704,6.775 L18.014,9.54 C17.56,9.426 17.094,9.32 16.629,9.214 L17.324,6.431 L15.596,6 L14.888,8.839 C14.512,8.753 14.142,8.669 13.784,8.579 L13.786,8.57 L11.402,7.975 L10.942,9.821 C10.942,9.821 12.225,10.115 12.198,10.133 C12.898,10.308 13.024,10.771 13.003,11.139 L12.197,14.374 C12.245,14.386 12.307,14.404 12.377,14.431 L12.194,14.386 L11.064,18.918 C10.978,19.13 10.761,19.449 10.271,19.328 C10.289,19.353 9.015,19.015 9.015,19.015 L8.157,20.993 L10.407,21.554 C10.825,21.659 11.235,21.769 11.638,21.872 L10.923,24.744 L12.65,25.174 L13.358,22.334 C13.83,22.461 14.288,22.579 14.736,22.691 L14.03,25.519 L15.758,25.949 L16.473,23.083 C19.421,23.641 21.637,23.416 22.57,20.75 C23.322,18.604 22.533,17.365 20.982,16.558 C22.112,16.298 22.962,15.555 23.189,14.02 L23.189,14.02 Z M19.239,19.558 C18.706,21.705 15.091,20.544 13.919,20.253 L14.869,16.448 C16.041,16.741 19.798,17.32 19.239,19.558 Z M19.774,13.989 C19.287,15.942 16.279,14.949 15.304,14.706 L16.164,11.256 C17.139,11.499 20.282,11.952 19.774,13.989 Z" id="path-11"></path>
        <filter x="-48.4%" y="-48.4%" width="196.9%" height="196.9%" filterUnits="objectBoundingBox" id="filter-12">
            <feMorphology radius="0.5" operator="dilate" in="SourceAlpha" result="shadowSpreadOuter1"></feMorphology>
            <feOffset dx="0" dy="0" in="shadowSpreadOuter1" result="shadowOffsetOuter1"></feOffset>
            <feMorphology radius="1" operator="erode" in="SourceAlpha" result="shadowInner"></feMorphology>
            <feOffset dx="0" dy="0" in="shadowInner" result="shadowInner"></feOffset>
            <feComposite in="shadowOffsetOuter1" in2="shadowInner" operator="out" result="shadowOffsetOuter1"></feComposite>
            <feGaussianBlur stdDeviation="5" in="shadowOffsetOuter1" result="shadowBlurOuter1"></feGaussianBlur>
            <feColorMatrix values="0 0 0 0 0   0 0 0 0 0.839215686   0 0 0 0 0.560784314  0 0 0 1 0" type="matrix" in="shadowBlurOuter1"></feColorMatrix>
        </filter>
        <linearGradient x1="100%" y1="0%" x2="0%" y2="100%" id="linearGradient-13">
            <stop stop-color="#FF3D71" offset="0%"></stop>
            <stop stop-color="#DB2C66" offset="100%"></stop>
        </linearGradient>
    </defs>
    <g id="Landing-/-Login" stroke="none" stroke-width="1" fill="none" fill-rule="evenodd">
        <g id="Accumulation---Landing---Desktop" transform="translate(-690.000000, -118.000000)">
            <g id="Group" transform="translate(700.000000, 128.000000)">
                <g id="undraw_predictive_analytics_kf9n">
                    <g id="Path" fill-rule="nonzero">
                        <use fill="black" fill-opacity="1" filter="url(#filter-2)" xlink:href="#path-1"></use>
                        <use stroke="#00D68F" stroke-width="1" xlink:href="#path-1"></use>
                    </g>
                    <rect id="Rectangle" fill="#151A30" x="68.2808717" y="38.7701493" width="345.956416" height="174.465672"></rect>
                    <rect id="Rectangle" fill="#FFFFFF" fill-rule="nonzero" opacity="0.3" x="117.215496" y="101.486567" width="254.915254" height="1.14029851"></rect>
                    <rect id="Rectangle" fill="#FFFFFF" fill-rule="nonzero" opacity="0.3" x="117.215496" y="116.310448" width="254.915254" height="1.14029851"></rect>
                    <rect id="Rectangle" fill="#FFFFFF" fill-rule="nonzero" opacity="0.3" x="117.215496" y="145.958209" width="254.915254" height="1.14029851"></rect>
                    <rect id="Rectangle" fill="#FFFFFF" fill-rule="nonzero" opacity="0.3" x="117.215496" y="158.501493" width="254.915254" height="1.14029851"></rect>
                    <rect id="Rectangle" fill="#FFFFFF" fill-rule="nonzero" opacity="0.3" x="117.215496" y="131.134328" width="254.915254" height="1.14029851"></rect>
                    <ellipse id="Oval" fill="#2E3A59" cx="333.438257" cy="371.737313" rx="109.249395" ry="10.2626866"></ellipse>
                    <g id="Path" fill-rule="nonzero">
                        <use fill="black" fill-opacity="1" filter="url(#filter-4)" xlink:href="#path-3"></use>
                        <use fill="#00D68F" xlink:href="#path-3"></use>
                    </g>
                    <path d="M232.979797,351.489676 C235.711163,361.880868 245.066604,368.316418 245.066604,368.316418 C245.066604,368.316418 249.993686,357.904496 247.262343,347.51331 C244.531,337.122123 235.175536,330.686567 235.175536,330.686567 C235.175536,330.686567 230.248431,341.098483 232.979797,351.489676 Z" id="Path" fill="#00D68F"></path>
                    <path d="M237.34783,349.141958 C244.889929,356.699189 245.811138,368.316418 245.811138,368.316418 C245.811138,368.316418 234.504195,367.680952 226.962097,360.123714 C219.419999,352.566476 218.498789,340.949254 218.498789,340.949254 C218.498789,340.949254 229.805738,341.58472 237.34783,349.141958 Z" id="Path" stroke="#00D68F" fill-rule="nonzero"></path>
                    <ellipse id="Oval" fill="#00E096" fill-rule="nonzero" opacity="0.4" cx="450.084746" cy="31.358209" rx="19.9152542" ry="19.9552239"></ellipse>
                    <g id="Oval" fill-rule="nonzero">
                        <use fill="black" fill-opacity="1" filter="url(#filter-6)" xlink:href="#path-5"></use>
                        <use fill="#00E096" xlink:href="#path-5"></use>
                    </g>
                    <g id="Oval" fill-rule="nonzero">
                        <use fill="black" fill-opacity="1" filter="url(#filter-8)" xlink:href="#path-7"></use>
                        <use fill="#00E096" xlink:href="#path-7"></use>
                    </g>
                    <ellipse id="Oval" fill="#00E096" fill-rule="nonzero" opacity="0.4" cx="270.847458" cy="332.967164" rx="5.69007264" ry="5.70149254"></ellipse>
                    <ellipse id="Oval" fill="#00E096" fill-rule="nonzero" opacity="0.4" cx="252.070218" cy="259.41791" rx="7.39709443" ry="7.4119403"></ellipse>
                    <g id="Oval" fill-rule="nonzero">
                        <use fill="black" fill-opacity="1" filter="url(#filter-10)" xlink:href="#path-9"></use>
                        <use fill="#00E096" xlink:href="#path-9"></use>
                    </g>
                    <path d="M308.220562,241.246886 L301.719913,241.971235 C301.719913,241.971235 298.830738,255.009517 301.719913,272.393894 C304.609088,289.778271 308.220562,307.162647 308.220562,307.162647 C308.220562,307.162647 311.109737,363.661918 312.554324,364.386273 C313.998911,365.110628 327.000198,369.456716 327.722509,365.110622 C328.44482,360.764528 328.444803,261.528623 328.444803,261.528623 L338.556914,309.3357 C338.556914,309.3357 340.001502,369.456716 342.890676,369.456716 C345.779851,369.456716 355.169681,368.732367 355.169681,363.661924 C355.169681,358.591481 357.336562,291.951312 357.336562,291.951312 C357.336562,291.951312 356.614268,242.695537 353.725087,241.246839 C350.835907,239.798141 308.220562,241.246886 308.220562,241.246886 Z" id="Path" fill="#171C31"></path>
                    <path d="M313.877718,361.790749 C313.877718,361.790749 307.307486,361.079474 305.847429,361.790749 C304.387373,362.502025 302.197303,367.480952 305.847429,370.326053 C309.497555,373.171154 318.987882,377.438806 321.907983,377.438806 C323.932973,377.351295 325.919161,376.867501 327.748184,376.016255 L326.288134,363.924569 L313.877718,361.790749 Z" id="Path" fill="#2F2E41" fill-rule="nonzero"></path>
                    <path d="M342.542373,365.539937 L343.280387,375.656205 C343.280387,375.656205 352.874575,377.101386 353.612583,375.656205 C354.350591,374.211024 361.730743,370.598065 362.468751,369.875481 C363.206759,369.152896 363.944779,361.204394 359.516695,360.481798 C355.088611,359.759201 353.612583,361.926979 353.612583,361.926979 L342.542373,365.539937 Z" id="Path" fill="#2F2E41" fill-rule="nonzero"></path>
                    <path d="M281.647627,180.167164 C281.647627,180.167164 264.316413,196.684095 266.482803,205.301624 C268.649193,213.919153 285.980437,239.053572 285.980437,239.053572 C285.980437,239.053572 302.589529,247.671095 304.755919,239.053572 C306.922309,230.436049 293.201776,232.590424 293.201776,232.590424 L282.369755,206.737854 L294.646044,189.502808 L281.647627,180.167164 Z" id="Path" fill="#FFB8B8" fill-rule="nonzero"></path>
                    <path d="M359.043024,155.080597 C359.043024,155.080597 374.764401,144.883817 374.40056,137.878427 C374.03672,130.873036 364.55918,108.784833 364.55918,108.784833 C364.55918,108.784833 357.144964,93.237397 354.197457,99.5913123 C351.249951,105.945228 358.071405,112.708789 358.071405,112.708789 L362.474275,134.376424 L350.508475,145.889896 L359.043024,155.080597 Z" id="Path" fill="#FFB8B8" fill-rule="nonzero"></path>
                    <ellipse id="Oval" fill="#FFB8B8" fill-rule="nonzero" cx="320.35109" cy="128.283582" rx="13.0871671" ry="13.1134328"></ellipse>
                    <path d="M314.09201,135.688848 L316.276998,149.379104 L332.300242,146.496948 C332.300242,146.496948 331.571913,132.806691 331.571913,131.365613 C331.571913,129.924534 314.09201,135.688848 314.09201,135.688848 Z" id="Path" fill="#FFB8B8" fill-rule="nonzero"></path>
                    <path d="M312.986274,149.150224 C312.986274,149.150224 330.929339,144.805537 333.082487,146.253766 C335.235635,147.701995 346.001481,149.150224 346.001481,149.150224 L358.202765,167.977203 L354.614155,191.873002 C354.614155,191.873002 353.896428,230.25111 355.331877,236.768147 C356.767327,243.285184 364.662268,244.009292 348.154658,245.457522 C331.647049,246.905751 328.77615,244.733407 317.292588,247.629871 C305.809026,250.526335 296.478636,246.181642 299.349523,243.285184 C302.220411,240.388725 307.244476,194.045351 301.502695,189.700658 C295.760914,185.355965 293.607748,162.908395 293.607748,162.908395 C293.607748,162.908395 312.986274,152.770803 312.986274,149.150224 Z" id="Path" fill="#FFFFFF" fill-rule="nonzero"></path>
                    <path d="M344.818402,151.268737 L346.92605,149.118462 L351.141347,144.81791 C351.141347,144.81791 364.841072,150.910358 364.138523,153.06064 C363.435973,155.210921 358.869396,167.754202 358.869396,167.754202 L352.546446,169.904478 L344.818402,151.268737 Z" id="Path" fill="#FFFFFF" fill-rule="nonzero"></path>
                    <path d="M302.158226,164.494689 L293.669258,163.062687 C293.669258,163.062687 287.302527,170.222698 285.180291,173.086702 C283.058055,175.950707 278.813559,183.110718 278.813559,183.110718 L293.66927,193.850746 L304.987893,181.678716 L302.158226,164.494689 Z" id="Path" fill="#FFFFFF" fill-rule="nonzero"></path>
                    <path d="M324.553089,111.666061 L324.419801,110.630819 C323.535762,110.625816 322.656738,110.763062 321.816847,111.03723 C321.730935,110.412961 321.785823,109.777521 321.977538,109.176929 C321.124081,109.394961 320.310876,109.746254 319.568295,110.217688 L319.042847,108.328358 L311.819621,111.865514 C309.226757,113.135218 306.493077,114.5305 305.010867,116.996373 C303.358426,119.745478 303.646013,123.278547 304.775585,126.277488 C305.905157,129.276428 307.782207,131.930368 309.286774,134.762079 C309.858036,135.979705 310.5445,137.140615 311.3369,138.229141 C314.063388,141.606326 319.370595,142.288611 323.214788,140.250345 C324.677509,139.550005 325.843502,138.357781 326.506158,136.884927 C326.786329,135.971188 327.005953,135.040193 327.163619,134.097923 C327.639129,132.168061 328.191125,128.184331 329.768674,126.963467 C330.462856,126.426224 331.839193,128.207197 332.414456,127.545632 C333.892807,125.845513 333.582543,123.223603 332.664414,121.170281 C331.783158,119.108059 330.753117,117.11179 329.582333,115.19706 C329.086229,114.427291 324.537097,111.541885 324.553089,111.666061 Z" id="Path" fill="#2F2E41" fill-rule="nonzero"></path>
                </g>
                <g id="btc" transform="translate(11.000000, 70.000000)">
                    <g id="Shape">
                        <use fill="black" fill-opacity="1" filter="url(#filter-12)" xlink:href="#path-11"></use>
                        <use stroke="#00D68F" stroke-width="1" xlink:href="#path-11"></use>
                    </g>
                </g>
                <g id="tag" transform="translate(158.000000, 111.000000)" fill="url(#linearGradient-13)">
                    <g id="-g-Group">
                        <rect id="Rectangle" x="0" y="0" width="8.505" height="8.505"></rect>
                    </g>
                </g>
                <g id="tag-copy-2" transform="translate(217.000000, 105.000000)" fill="url(#linearGradient-13)">
                    <g id="-g-Group">
                        <rect id="Rectangle" x="0" y="0" width="8.505" height="8.505"></rect>
                    </g>
                </g>
                <g id="tag-copy-4" transform="translate(262.000000, 96.000000)" fill="url(#linearGradient-13)">
                    <g id="-g-Group">
                        <rect id="Rectangle" x="0" y="0" width="8.505" height="8.505"></rect>
                    </g>
                </g>
                <g id="tag" transform="translate(120.000000, 162.000000)">
                    <g id="-g-Group" fill="#00D68F">
                        <rect id="Rectangle" x="0" y="0" width="8.505" height="8.505"></rect>
                    </g>
                    <g id="arrow-down" transform="translate(2.716875, 4.252500) rotate(180.000000) translate(-2.716875, -4.252500) translate(1.417500, 2.835000)"></g>
                </g>
                <g id="tag-copy" transform="translate(190.000000, 151.000000)">
                    <g id="-g-Group" fill="#00D68F">
                        <rect id="Rectangle" x="0" y="0" width="8.505" height="8.505"></rect>
                    </g>
                    <g id="arrow-down" transform="translate(2.716875, 4.252500) rotate(180.000000) translate(-2.716875, -4.252500) translate(1.417500, 2.835000)"></g>
                </g>
                <g id="tag-copy-3" transform="translate(229.000000, 130.000000)">
                    <g id="-g-Group" fill="#00D68F">
                        <rect id="Rectangle" x="0" y="0" width="8.505" height="8.505"></rect>
                    </g>
                    <g id="arrow-down" transform="translate(2.716875, 4.252500) rotate(180.000000) translate(-2.716875, -4.252500) translate(1.417500, 2.835000)"></g>
                </g>
                <g id="tag-copy-5" transform="translate(297.000000, 135.000000)">
                    <g id="-g-Group" fill="#00D68F">
                        <rect id="Rectangle" x="0" y="0" width="8.505" height="8.505"></rect>
                    </g>
                    <g id="arrow-down" transform="translate(2.716875, 4.252500) rotate(180.000000) translate(-2.716875, -4.252500) translate(1.417500, 2.835000)"></g>
                </g>
            </g>
        </g>
    </g>
</svg>