<?xml version="1.0" encoding="UTF-8"?>
<svg width="60px" height="59px" viewBox="0 0 60 59" version="1.1" xmlns="http://www.w3.org/2000/svg" xmlns:xlink="http://www.w3.org/1999/xlink">
    <!-- Generator: sketchtool 56.3 (101010) - https://sketch.com -->
    <title>DC00E707-B456-47CE-A8A1-FC59483356EA</title>
    <desc>Created with sketchtool.</desc>
    <g id="Landing-/-Login" stroke="none" stroke-width="1" fill="none" fill-rule="evenodd">
        <g id="Accumulation---Landing---Desktop" transform="translate(-1055.000000, -974.000000)" fill="#884DFF">
            <g id="pictograms/calendar/calendar-02-copy" transform="translate(1055.000000, 974.000000)">
                <path d="M24.6224702,47.1060373 C24.6235436,47.1066466 24.624616,47.1072592 24.6256875,47.107875 C26.0019375,47.902875 26.9863125,49.185375 27.3988125,50.722875 C27.8113125,52.2585 27.5994375,53.861625 26.8044375,55.23975 L26.7200625,55.384125 C25.8275625,56.931 23.4406875,58.28475 21.2244375,59.406 C21.1269375,59.456625 21.0219375,59.479125 20.9206875,59.479125 C20.6731875,59.479125 20.4369375,59.344125 20.3169375,59.10975 C20.1481875,58.776 20.2831875,58.371 20.6150625,58.20225 C21.7419375,57.63225 24.7400625,56.11725 25.5500625,54.709125 L25.6363125,54.562875 C26.2494375,53.49975 26.4125625,52.2585 26.0956875,51.071625 C25.7769375,49.882875 25.0156875,48.892875 23.9506875,48.277875 C23.9430052,48.2734086 23.9354432,48.2688144 23.9280025,48.2640969 C22.8697192,47.6612123 21.6372912,47.5006085 20.4585,47.8171875 C19.271625,48.1359375 18.27975,48.8971875 17.66475,49.9621875 L17.662875,49.9640625 L17.576625,50.1103125 C16.766625,51.5165625 16.95225,54.8671875 17.0235,56.1271875 C17.044125,56.5003125 16.759125,56.8171875 16.387875,56.8396875 C16.37475,56.8396875 16.361625,56.8396875 16.3485,56.8396875 C15.994125,56.8396875 15.696,56.5621875 15.675375,56.2021875 C15.536625,53.7234375 15.516,50.9803125 16.410375,49.4315625 L16.4985,49.2834375 C17.28975,47.9090625 18.574125,46.9246875 20.107875,46.5140625 C21.6419571,46.1038501 23.2452748,46.3111449 24.6224702,47.1060373 Z M37.71975,19.716 C36.11475,19.716 34.552875,20.5485 33.694125,22.035375 C33.0735,23.107875 32.910375,24.356625 33.231,25.55475 C33.551625,26.751 34.320375,27.750375 35.392875,28.369125 C36.4635,28.987875 37.71225,29.15475 38.91225,28.834125 C40.1085,28.5135 41.10975,27.74475 41.7285,26.67225 C43.00725,24.457875 42.244125,21.615375 40.02975,20.336625 C39.30225,19.916625 38.505375,19.716 37.71975,19.716 Z M37.701,30.3435 C36.664125,30.3435 35.640375,30.071625 34.716,29.539125 C33.33225,28.7385 32.340375,27.4485 31.927875,25.9035 C31.511625,24.3585 31.725375,22.744125 32.524125,21.3585 C34.176,18.501 37.8435,17.52225 40.70475,19.166625 L40.70475,19.1685 C43.564125,20.8185 44.5485,24.487875 42.8985,27.34725 C42.097875,28.732875 40.806,29.722875 39.261,30.13725 C38.745375,30.276 38.22225,30.3435 37.701,30.3435 Z M36.262125,57.7955625 C36.02775,57.7955625 35.800875,57.6755625 35.677125,57.4580625 C35.489625,57.1355625 35.60025,56.7230625 35.924625,56.5355625 L42.858375,52.5380625 L38.204625,44.4793125 C38.0715,44.2486875 38.0865,43.9636875 38.24025,43.7480625 L44.935875,34.4143125 C48.652125,29.2336875 50.619,23.1268125 50.619,16.7499375 L50.619,4.9261875 C50.619,4.3130625 50.302125,3.7636875 49.7715,3.4561875 C49.24275,3.1505625 48.610875,3.1524375 48.082125,3.4561875 L37.839,9.3699375 C32.317125,12.5593125 28.008375,17.3143125 25.3815,23.1230625 L20.647125,33.5893125 C20.5365,33.8311875 20.2965,33.9868125 20.032125,33.9868125 L10.724625,33.9868125 L10.728375,42.0118125 C10.728375,42.3849375 10.4265,42.6868125 10.053375,42.6868125 C9.68025,42.6868125 9.378375,42.3849375 9.378375,42.0118125 L9.374625,33.3118125 C9.374625,33.1336875 9.445875,32.9611875 9.573375,32.8336875 C9.699,32.7080625 9.869625,32.6368125 10.049625,32.6368125 L19.59525,32.6368125 L24.1515,22.5661875 C26.894625,16.5005625 31.394625,11.5318125 37.162125,8.2018125 L47.40525,2.2880625 C48.35775,1.7386875 49.494,1.7386875 50.4465,2.2880625 C51.400875,2.8374375 51.969,3.8236875 51.969,4.9261875 L51.969,16.7499375 C51.967125,23.4099375 49.915875,29.7905625 46.03275,35.2018125 L39.59025,44.1811875 L44.364,52.4480625 C44.454,52.6036875 44.478375,52.7874375 44.4315,52.9599375 C44.384625,53.1343125 44.272125,53.2805625 44.1165,53.3705625 L36.59775,57.7055625 C36.49275,57.7674375 36.3765,57.7955625 36.262125,57.7955625 Z" id="Fill-9"></path>
            </g>
        </g>
    </g>
</svg>