<?xml version="1.0" encoding="utf-8"?>
<!-- Generator: Adobe Illustrator 22.1.0, SVG Export Plug-In . SVG Version: 6.00 Build 0)  -->
<svg version="1.1" width="14" height="14" id="Layer_1" xmlns="http://www.w3.org/2000/svg" xmlns:xlink="http://www.w3.org/1999/xlink" x="0px" y="0px"
	 viewBox="0 0 14 14" style="enable-background:new 0 0 14 14;" xml:space="preserve">
<style type="text/css">
	.st0{fill:#00D68F;}
</style>
<title>31862558-2608-4E7C-9958-7A38B21A5805</title>
<desc>Created with sketchtool.</desc>
<g id="Signup-flow">
	<g id="Section-state" transform="translate(493.000000, 112.000000)">
		<g id="progress-indicator-_x2F_-pieces-_x2F_-icon-_x2F_-02-complete" transform="translate(0.000000, 12.000000)">
			<g id="icon_x2F_status_x2F_checkmark_x2F_16">
				<g id="icon-color">
					<path id="path-1_1_" class="st0" d="M-482.5-118.8l-0.7-0.7l-3.8,3.8l-1.8-1.8l-0.7,0.7l2.5,2.5L-482.5-118.8z M-486-124
						c-3.9,0-7,3.2-7,7s3.1,7,7,7s7-3.2,7-7S-482.1-124-486-124z M-486-111c-3.3,0-6-2.7-6-6s2.7-6,6-6s6,2.7,6,6
						S-482.7-111-486-111z"/>
				</g>
			</g>
		</g>
	</g>
</g>
</svg>
