<?xml version="1.0" encoding="utf-8"?>
<!-- Generator: Adobe Illustrator 22.1.0, SVG Export Plug-In . SVG Version: 6.00 Build 0)  -->
<svg version="1.1" width="10.5" height="12" id="Layer_1" xmlns="http://www.w3.org/2000/svg" xmlns:xlink="http://www.w3.org/1999/xlink" x="0px" y="0px"
	 viewBox="0 0 10.5 12" style="enable-background:new 0 0 10.5 12;" xml:space="preserve">
<style type="text/css">
	.st0{fill:#FF3D71;}
</style>
<title>CECA4F48-79E8-4827-A690-C3D04CEB8948</title>
<desc>Created with sketchtool.</desc>
<g id="arrow-down" transform="translate(0.000000, 6.000000)">
	<g id="_xD83C__xDFA8_-Icon-Сolor">
		<path id="path-1_1_" class="st0" d="M10.3,1c-0.3-0.3-0.7-0.4-1.1-0.1L6,3.6v-8.9C6-5.7,5.7-6,5.3-6C4.8-6,4.5-5.7,4.5-5.3v8.9
			L1.2,0.9C0.9,0.7,0.4,0.7,0.2,1C-0.1,1.3,0,1.8,0.3,2.1l4.5,3.8c0,0,0.1,0,0.1,0.1c0,0,0.1,0,0.1,0.1C5.1,6,5.2,6,5.3,6
			c0.1,0,0.2,0,0.3-0.1c0,0,0.1,0,0.1-0.1c0,0,0.1,0,0.1-0.1l4.5-3.8C10.5,1.8,10.6,1.3,10.3,1"/>
	</g>
</g>
</svg>
