<?xml version="1.0" encoding="UTF-8"?>
<svg width="80px" height="81px" viewBox="0 0 80 81" version="1.1" xmlns="http://www.w3.org/2000/svg" xmlns:xlink="http://www.w3.org/1999/xlink">
    <!-- Generator: sketchtool 57.1 (101010) - https://sketch.com -->
    <title>7524EA00-14AD-4C59-BADD-4E2671F41AA5</title>
    <desc>Created with sketchtool.</desc>
    <defs>
        <path d="M157.7216,237.9994 C169.1456,237.9994 178.4416,247.2954 178.4416,258.7194 C178.4416,264.0094 176.4496,268.9854 172.8536,272.8374 L172.8536,272.8374 L188.2296,288.2114 L187.2116,289.2294 L171.8356,273.8554 C168.1616,277.2854 163.4616,279.2314 158.4416,279.4034 L158.4416,279.4034 L158.4416,298.7194 C158.4416,299.1174 158.1196,299.4394 157.7216,299.4394 L157.7216,299.4394 L137.7216,299.4394 C137.5296,299.4394 137.3456,299.3634 137.2116,299.2294 L137.2116,299.2294 L127.2116,289.2294 C127.0756,289.0934 126.9996,288.9114 126.9996,288.7194 L126.9996,288.7194 L126.9996,258.7194 C126.9996,258.3214 127.3216,257.9994 127.7216,257.9994 L127.7216,257.9994 L137.0376,257.9994 C137.4196,246.9094 146.5376,237.9994 157.7216,237.9994 Z M137.0136,259.4394 L128.4416,259.4394 L128.4416,287.9994 L137.7216,287.9994 C138.1196,287.9994 138.4416,288.3214 138.4416,288.7194 L138.4416,288.7194 L138.4416,297.9994 L156.9996,297.9994 L156.9996,279.4274 C156.7416,279.4194 156.4896,279.3834 156.2336,279.3634 C155.9256,279.3414 155.6196,279.3234 155.3136,279.2874 C154.9376,279.2434 154.5656,279.1814 154.1936,279.1154 C153.8976,279.0654 153.6016,279.0194 153.3076,278.9554 C152.9416,278.8754 152.5796,278.7734 152.2196,278.6754 C151.9356,278.5974 151.6496,278.5254 151.3716,278.4354 C151.0136,278.3194 150.6656,278.1834 150.3156,278.0474 C150.0476,277.9454 149.7776,277.8514 149.5136,277.7354 C149.1656,277.5854 148.8316,277.4134 148.4916,277.2434 C148.2436,277.1194 147.9876,277.0054 147.7456,276.8694 C147.4056,276.6834 147.0836,276.4754 146.7576,276.2694 C146.5316,276.1274 146.2976,275.9954 146.0736,275.8434 C145.7376,275.6154 145.4216,275.3634 145.0996,275.1154 C144.9056,274.9654 144.7016,274.8274 144.5116,274.6694 C144.1076,274.3334 143.7216,273.9734 143.3436,273.6074 C143.1596,273.4294 142.9796,273.2474 142.8036,273.0634 C142.4496,272.6954 142.0976,272.3234 141.7716,271.9294 C141.5956,271.7174 141.4376,271.4874 141.2696,271.2674 C141.0436,270.9714 140.8116,270.6814 140.6016,270.3734 C140.4276,270.1214 140.2776,269.8534 140.1156,269.5914 C139.9336,269.2974 139.7456,269.0114 139.5776,268.7094 C139.4256,268.4314 139.2936,268.1434 139.1516,267.8574 C139.0016,267.5554 138.8476,267.2554 138.7116,266.9434 C138.5836,266.6474 138.4756,266.3434 138.3616,266.0414 C138.2416,265.7254 138.1176,265.4114 138.0116,265.0894 C137.9116,264.7794 137.8316,264.4614 137.7456,264.1454 C137.6556,263.8174 137.5636,263.4894 137.4896,263.1554 C137.4196,262.8334 137.3676,262.5034 137.3116,262.1754 C137.2556,261.8354 137.1976,261.4974 137.1556,261.1534 C137.1176,260.8194 137.0956,260.4814 137.0716,260.1454 C137.0556,259.9074 137.0216,259.6774 137.0136,259.4394 L137.0136,259.4394 Z M136.9996,289.4394 L129.4596,289.4394 L136.9996,296.9814 L136.9996,289.4394 Z M157.7216,239.4394 C147.0896,239.4394 138.4416,248.0894 138.4416,258.7194 C138.4416,269.3514 147.0896,277.9994 157.7216,277.9994 C162.8676,277.9994 167.7096,275.9934 171.3516,272.3514 C174.9936,268.7074 176.9996,263.8654 176.9996,258.7194 C176.9996,248.0894 168.3516,239.4394 157.7216,239.4394 Z M169.107,249.3484 L170.341,250.0904 L162.797,262.6304 C162.661,262.8564 162.405,263.0044 162.143,262.9784 C161.877,262.9644 161.641,262.8064 161.527,262.5644 L161.527,262.5644 L157.653,254.2724 L152.803,262.6204 C152.659,262.8664 152.375,263.0024 152.103,262.9764 C151.823,262.9444 151.583,262.7524 151.495,262.4824 L151.495,262.4824 L149.541,256.4784 L144.883,264.5404 L143.637,263.8184 L149.101,254.3584 C149.245,254.1124 149.543,253.9724 149.799,254.0044 C150.083,254.0324 150.321,254.2264 150.411,254.4964 L150.411,254.4964 L152.365,260.5064 L157.097,252.3584 C157.231,252.1264 157.473,251.9864 157.751,252.0004 C158.019,252.0124 158.259,252.1724 158.373,252.4144 L158.373,252.4144 L162.259,260.7304 L169.107,249.3484 Z" id="path-1"></path>
        <filter x="-24.5%" y="-24.4%" width="149.0%" height="148.8%" filterUnits="objectBoundingBox" id="filter-2">
            <feOffset dx="0" dy="0" in="SourceAlpha" result="shadowOffsetOuter1"></feOffset>
            <feGaussianBlur stdDeviation="5" in="shadowOffsetOuter1" result="shadowBlurOuter1"></feGaussianBlur>
            <feColorMatrix values="0 0 0 0 0   0 0 0 0 0.839215686   0 0 0 0 0.560784314  0 0 0 1 0" type="matrix" in="shadowBlurOuter1"></feColorMatrix>
        </filter>
    </defs>
    <g id="Icons" stroke="none" stroke-width="1" fill="none" fill-rule="evenodd">
        <g transform="translate(-117.000000, -228.000000)" id="trend">
            <g>
                <use fill="black" fill-opacity="1" filter="url(#filter-2)" xlink:href="#path-1"></use>
                <use fill="#00E096" fill-rule="evenodd" xlink:href="#path-1"></use>
            </g>
        </g>
    </g>
</svg>